<svg xmlns="http://www.w3.org/2000/svg" width="640" height="360" viewBox="0 0 640 360" role="img" aria-labelledby="title desc">
  <title id="title">Illustration of Wrexham terraces with damp risk indicators</title>
  <desc id="desc">Row of terraced houses with rainfall clouds and moisture icons highlighting common damp hotspots.</desc>
  <defs>
    <linearGradient id="rain" x1="0" x2="0" y1="0" y2="1">
      <stop offset="0%" stop-color="#4f8dd6" stop-opacity="0.85" />
      <stop offset="100%" stop-color="#b7d2f0" stop-opacity="0.4" />
    </linearGradient>
  </defs>
  <rect width="640" height="360" fill="#f4f7fb" />
  <g transform="translate(0,40)">
    <rect x="40" y="120" width="560" height="160" rx="16" fill="#e0e6ef" />
    <g fill="#324b73">
      <rect x="60" y="140" width="100" height="110" />
      <rect x="180" y="140" width="100" height="110" />
      <rect x="300" y="140" width="100" height="110" />
      <rect x="420" y="140" width="100" height="110" />
      <rect x="540" y="140" width="60" height="110" />
    </g>
    <g fill="#f9f9fb">
      <rect x="80" y="160" width="40" height="50" />
      <rect x="200" y="160" width="40" height="50" />
      <rect x="320" y="160" width="40" height="50" />
      <rect x="440" y="160" width="40" height="50" />
      <rect x="560" y="160" width="20" height="50" />
      <rect x="80" y="220" width="40" height="30" />
      <rect x="200" y="220" width="40" height="30" />
      <rect x="320" y="220" width="40" height="30" />
      <rect x="440" y="220" width="40" height="30" />
      <rect x="560" y="220" width="20" height="30" />
    </g>
    <g>
      <path d="M95 140 L100 120 L105 140 Z" fill="#d0d8e8" />
      <path d="M215 140 L220 120 L225 140 Z" fill="#d0d8e8" />
      <path d="M335 140 L340 120 L345 140 Z" fill="#d0d8e8" />
      <path d="M455 140 L460 120 L465 140 Z" fill="#d0d8e8" />
    </g>
    <g fill="url(#rain)" opacity="0.75">
      <rect x="70" y="50" width="60" height="80" rx="20" />
      <rect x="190" y="30" width="60" height="100" rx="20" />
      <rect x="310" y="60" width="60" height="70" rx="20" />
      <rect x="430" y="40" width="60" height="90" rx="20" />
    </g>
    <g fill="#4f8dd6" opacity="0.8">
      <circle cx="120" cy="270" r="24" />
      <circle cx="240" cy="280" r="22" />
      <circle cx="360" cy="270" r="24" />
    </g>
    <g fill="#fff" opacity="0.9">
      <path d="M120 255 l12 20 a12 12 0 1 1 -24 0z" />
      <path d="M240 265 l12 20 a12 12 0 1 1 -24 0z" />
      <path d="M360 255 l12 20 a12 12 0 1 1 -24 0z" />
    </g>
    <text x="120" y="320" text-anchor="middle" font-family="'Open Sans', Arial, sans-serif" font-size="14" fill="#2b3a55">
      Penetrating damp
    </text>
    <text x="240" y="335" text-anchor="middle" font-family="'Open Sans', Arial, sans-serif" font-size="14" fill="#2b3a55">
      Condensation risk
    </text>
    <text x="360" y="320" text-anchor="middle" font-family="'Open Sans', Arial, sans-serif" font-size="14" fill="#2b3a55">
      Sub-floor moisture
    </text>
  </g>
</svg>
